# xmcd
#
# Track frame offsets:
#       150
#       21928
#       35943
#       49249
#       67430
#       78751
#       98758
#       116712
#       134891
#       148786
#
# Disc length: 2261 seconds
#
# Revision: 0
# Processed by: cddbd v1.4PL0 Copyright (c) Steve Scherf et al.
# Submitted via: CD-DA_X-Tractor v0.21
#
DISCID=9e08d30a
DTITLE=JOE BERRY  - THE DARK SIDE OF THE MOON ON K
DYEAR=1900
DGENRE=
TTITLE0=THE DARK SIDE OF THE MOON
TTITLE1=I MUST BE TALKING TO MYSELF
TTITLE2=YOUR MEMORY KEEPS ON FANNING THE FLAME
TTITLE3=DON'T WAKE ME
TTITLE4=LIKE A BAD PENNY
TTITLE5=WAY AHEAD OF YOU
TTITLE6=YOU DON'T LOVE ME LIKE YOU USE TOO
TTITLE7=I'LL SPEND ALL MY TIME
TTITLE8=JUST BY CHANCE
TTITLE9=GOD BLESS AMERICA AGAIN
EXTD=
EXTT0=
EXTT1=
EXTT2=
EXTT3=
EXTT4=
EXTT5=
EXTT6=
EXTT7=
EXTT8=
EXTT9=
PLAYORDER=
